<svg xmlns="http://www.w3.org/2000/svg" width="212" height="23" viewBox="0 -33 322 33" preserveAspectRatio="xMidYMax meet"><g fill="#fff"><path d="M81.672-21.906c-1.601-2.239-3.797-3.584-6.774-3.584-4.965 0-8.989 4.065-8.989 9.078 0 5.017 4.024 9.082 8.99 9.082 3.58 0 6.67-2.113 8.115-5.17 0 0-9.247.004-9.247 0v-7.437h16.94v-11.526h15.098v7.43h-7.912s-.026 4.096 0 4.096h7.912v7.433h-7.912v3.84h7.912v7.246c.256.015-15.107-.014-15.107 0v-11.021C88.91-4.23 82.31 0 74.898 0c-7.345 0-13.447-4.341-15.226-12.025l-.003 1.98v8.627h-7.428v-17.558s-4.294 3.784-4.294 17.558h-7.629c0-13.774-4.294-17.558-4.294-17.558v17.558h-7.428v-30.506c8.557 0 14.209 9.616 15.534 15.289h.006c1.324-5.673 6.975-15.289 15.533-15.289v10.152l.003-.014c1.439-6.738 8.222-11.307 15.226-11.307 7.194 0 13.526 5.433 14.865 11.187h-8.09M122.093-1.417c-1.087-8.292-6.57-14.198-6.57-14.198v14.193h-7.877V-31.46c1.749 0 8.02 3.387 14.445 12.632v-12.635h7.684v30.046h-7.682M19.387-15.94v-7.109c-2.39 1.668-4.953 4.762-6.501 7.108zM9.745-8.95C9.537-8.086 8.22-3.473 7.69-1.35H0C1.015-5.145 3.043-11.64 5.105-15.972c2.056-4.318 4.653-9.075 8.905-12.278 1.965-1.481 5.777-4.395 12.835-3.736v30.594H19.38V-8.95H9.745M136.712-29.885c.388.008.662-.08.662-.528 0-.45-.496-.45-.835-.45h-.849v.978zm1.24 2.005h-.804l-.775-1.486h-.683v1.486h-.683v-3.504h1.691c.296 0 .684.008.948.174.312.207.411.544.411.906 0 .635-.338.897-.957.938zm1.013-1.772a2.62 2.62 0 0 0-2.623-2.623 2.626 2.626 0 0 0-2.639 2.623 2.629 2.629 0 0 0 2.639 2.637c1.45 0 2.623-1.17 2.623-2.637zm-5.872 0a3.241 3.241 0 1 1 3.249 3.25 3.247 3.247 0 0 1-3.25-3.25M153.074-31.066h15.479v3.9h-10.847v8.044h10.197v3.9h-10.197V-2.06h-4.632v-29.006M178.873-4.74c3.21 0 3.779-2.681 3.779-8.247 0-4.835-.57-8.247-3.779-8.247-3.169 0-3.737 3.412-3.737 8.247 0 5.566.568 8.247 3.737 8.247zm0-19.745c6.378 0 8.166 4.713 8.166 11.498 0 6.784-2.071 11.497-8.166 11.497-6.054 0-8.125-4.713-8.125-11.497 0-6.785 1.788-11.498 8.125-11.498M201.584-4.618h-.122c-1.097 1.95-3.168 3.128-5.606 3.128-3.25 0-5.444-1.503-5.444-7.15v-15.277h4.387v15.683c0 2.437 1.098 3.249 2.966 3.249 1.87 0 3.575-1.218 3.575-3.654v-15.278h4.387V-2.06h-4.143v-2.558M209.953-23.917h4.145v2.561h.122c1.096-1.95 3.169-3.13 5.607-3.13 3.33 0 5.443 1.504 5.443 5.932V-2.06h-4.389v-14.99c0-2.844-.852-3.94-3.046-3.94-1.788 0-3.494 1.42-3.494 4.265V-2.06h-4.388v-21.857M236.686-20.99c-2.518 0-3.412 2.03-3.412 7.92 0 4.957.65 8.085 3.697 8.085 3.006 0 3.697-3.087 3.697-7.758 0-5.242-.61-8.247-3.982-8.247zm3.982 16.25h-.082c-.568 1.42-1.666 3.25-4.793 3.25-5.12 0-7.152-4.265-7.152-11.782 0-9.71 3.413-11.213 6.745-11.213 2.357 0 4.143 1.179 4.956 3.13h.08v-9.711h4.39V-2.06h-4.144v-2.68M259.233-13.596c-1.137.894-3.575 1.42-4.874 2.031-1.26.61-1.788 1.91-1.788 3.535 0 1.827.894 3.29 2.722 3.29 2.64 0 3.94-1.992 3.94-5.2zm4.145 6.988c0 .811.488 1.542 1.138 1.542.283 0 .568-.04.73-.121v2.844c-.527.244-1.3.527-2.152.527-1.952 0-3.576-.77-3.698-2.884h-.08c-1.179 2.153-2.886 3.21-5.446 3.21-3.493 0-5.688-1.95-5.688-6.134 0-4.876 2.114-5.891 5.08-6.866l3.412-.935c1.585-.448 2.56-.894 2.56-2.803 0-1.99-.69-3.251-3.007-3.251-2.925 0-3.331 2.072-3.331 4.184h-4.143c0-4.63 1.909-7.19 7.677-7.19 3.86 0 6.948 1.503 6.948 5.363v12.514M265.897-23.917h3.007v-6.216h4.388v6.216h3.575v3.25h-3.575v13.043c0 1.706.486 2.315 1.989 2.315.65 0 1.18-.04 1.586-.122v3.25c-.936.243-2.154.365-3.535.365-2.966 0-4.428-.812-4.428-5.281v-13.57h-3.007v-3.25M279.344-23.917h4.388V-2.06h-4.388zm0-7.475h4.388v4.388h-4.388v-4.388M295.434-4.74c3.207 0 3.778-2.681 3.778-8.247 0-4.835-.57-8.247-3.778-8.247-3.17 0-3.74 3.412-3.74 8.247 0 5.566.57 8.247 3.74 8.247zm0-19.745c6.376 0 8.165 4.713 8.165 11.498 0 6.784-2.072 11.497-8.165 11.497-6.055 0-8.126-4.713-8.126-11.497 0-6.785 1.787-11.498 8.126-11.498M306.971-23.917h4.144v2.561h.121c1.098-1.95 3.169-3.13 5.607-3.13 3.331 0 5.444 1.504 5.444 5.932V-2.06H317.9v-14.99c0-2.844-.853-3.94-3.047-3.94-1.788 0-3.495 1.42-3.495 4.265V-2.06h-4.387v-21.857"/></g></svg>