<svg xmlns="http://www.w3.org/2000/svg" width="612" height="612" viewBox="0 0 612 612"><path fill="#8DD4F0" d="M209.002 569.338c-20.766-3.035-51.416 9.243-39.116 23.869-8.922-12.534 20.643-16.092 41.275-8.73 11.24 4.008 27.222 10.393 17.831 15.606 12.687-5.372 11.527-26.134-19.99-30.745z"/><path fill="#6786C4" d="M212.132 580.436c-21.483-5.312-51.167.237-42.245 12.771 12.301 14.623 46.419 12.243 59.106 6.876 9.391-5.214 4.398-14.392-16.861-19.647z"/><path fill="#8DD4F0" d="M256.817 141.378c-83.022 102.977-34.761 179.881-27.521 198.71 7.239 18.822 11.104 17.86-20.271 43.921-32.857 27.302-43.762 72.1-37.122 110.619 3.277 19.039 10.819 36.546 22.157 49.643 25.87 29.876 69.063 42.134 107.169 25.59 4.982-11.14 22.366-24.739 37.933-29.375 11.32-13.897 18.689-29.677 22.493-45.857 9.42-40.03-3.039-82.496-31.956-104.825-33.467-25.838-60.818-16.895-74.817-30.893-22.727-22.723 16.695-244.059 201.742-354.307l2.928-2.246c-.001 0-119.709 36.04-202.735 139.02z"/><path fill="none" d="M307.656 309.352c-.826.303-1.611.599-2.419.901a72.72 72.72 0 0 0 4.683-1.72c-.753.271-1.506.549-2.264.819z"/><path fill="#6786C4" d="M411.162 147.251c-3.442-72.287-53.73-88.855-116.167 42.367-54.845 115.28-24.036 132.081 10.242 120.634.808-.303 1.593-.599 2.419-.901.758-.27 1.511-.548 2.264-.818a.81.81 0 0 1 .115-.043c.091-.04.181-.062.271-.098 53.482-19.413 105.399-40.832 100.977-155.431-.076-1.953-.084-3.799-.121-5.71z"/><path fill="#5273B8" d="M419.527 69.763c11.092-40.276 32.842-61.409 40.023-67.405l-2.928 2.246C271.576 114.852 232.154 336.188 254.881 358.911c-6.128-7.099-1.442-22.261 19.746-34.671 7.859-4.606 17.939-9.286 30.611-13.987-34.277 11.446-61.575-13.729-8.801-120.634 57.186-115.84 111.283-114.654 114.726-42.367-.735-31.849 2.819-57.38 8.364-77.489z"/><path fill="#A09F9F" d="M309.92 308.533c.131-.05.256-.094.386-.141-.09.036-.18.058-.271.098a.954.954 0 0 0-.115.043z"/><path fill="#6786C4" d="M301.21 569.861c4.986-11.14 22.37-24.739 37.938-29.375 11.32-13.897 18.692-29.677 22.491-45.857 9.421-40.03-3.038-82.496-31.959-104.825-33.462-25.838-60.818-16.895-74.817-30.893-.234-.234-.45-.523-.667-.8 10.065 15.004 28.077 14.855 47.216 29.966 22.932 18.101 34.396 48.823 32.341 85.47-4.29 76.641-105.277 112.537-142.042 67.801.779.981 1.524 1.987 2.329 2.924 25.875 29.875 69.068 42.133 107.17 25.589z"/><path fill="#6B79BB" d="M277.42 508.113c5.296-.011 9.604-4.806 9.604-10.705.004-5.891-4.297-10.649-9.589-10.628-5.296.015-9.586 4.806-9.586 10.696-.004 5.9 4.279 10.659 9.571 10.637zM205.953 504.14c-4.517 1.565-6.785 6.9-5.062 11.929 1.713 5.023 6.778 7.827 11.306 6.263 4.506-1.564 6.782-6.903 5.059-11.926-1.721-5.03-6.786-7.827-11.303-6.266z"/><path fill="#FFF" d="M281.52 494.128c-.007 2.062-1.676 3.753-3.746 3.757a3.736 3.736 0 0 1-3.746-3.735 3.76 3.76 0 0 1 3.75-3.756 3.725 3.725 0 0 1 3.742 3.734zM212.824 511.295a3.765 3.765 0 0 1-3.757 3.754 3.728 3.728 0 0 1-3.746-3.729 3.774 3.774 0 0 1 3.753-3.76 3.732 3.732 0 0 1 3.75 3.735z"/><path fill="#8DD4F0" d="M302.588 555.901c18.267-23.418 44.166-32.435 56.03-21.389 11.857 11.054-5.166 39.434-33.062 44.88-27.897 5.452-38.15-4.016-22.968-23.491z"/><path fill="#6786C4" d="M303.125 559.41c16.721-20.16 35.564-24.703 46.319-15.279 10.751 9.42-.094 31.221-25.521 36.012-25.405 4.795-34.714-3.962-20.798-20.733z"/></svg>
