<svg id="Layer_1" xmlns="http://www.w3.org/2000/svg" xmlns:xlink="http://www.w3.org/1999/xlink" viewBox="0 0 290 320"><style>.st0{fill:#01a995}.st1{fill:#94fff5}.st2{clip-path:url(#SVGID_2_)}.st3{fill:#26edd5}.st4{fill:#fca9a9}.st5{fill:#ff8482}.st6{fill:#2c5a75}.st7{fill:#01d1c1}.st8{fill:#fff}</style><path class="st0" d="M73.7 289c6.1-6.1 5.5-16.6 5.5-16.6s-10.5-.6-16.6 5.5-5.5 16.6-5.5 16.6 10.5.6 16.6-5.5z"/><path class="st0" d="M104.7 274.7H79.9c-21.3 0-38.7-17.4-38.7-38.7V131.1h4.5V236c0 18.8 15.3 34.2 34.2 34.2h24.9v4.5zM152 237.4V40.3h4.5v197.1M227.3 227.9v-4.5c13.4 0 24.3-10.9 24.3-24.3V71.4h4.5V199c.1 15.9-12.9 28.9-28.8 28.9z"/><path class="st0" d="M284.1 73.6h-60.3c-1.3 0-2.3-1-2.3-2.3s1-2.3 2.3-2.3h60.3c1.3 0 2.3 1 2.3 2.3s-1.1 2.3-2.3 2.3z"/><path class="st0" d="M275.2 95c-.6 0-1.2-.2-1.6-.7L231 51.7c-.9-.9-.9-2.3 0-3.2.9-.9 2.3-.9 3.2 0l42.7 42.7c.9.9.9 2.3 0 3.2-.5.3-1.1.6-1.7.6z"/><path class="st0" d="M253.9 103.8c-1.3 0-2.3-1-2.3-2.3V41.2c0-1.3 1-2.3 2.3-2.3s2.3 1 2.3 2.3v60.3c0 1.3-1 2.3-2.3 2.3z"/><path class="st0" d="M232.6 95c-.6 0-1.2-.2-1.6-.7-.9-.9-.9-2.3 0-3.2l42.7-42.7c.9-.9 2.3-.9 3.2 0 .9.9.9 2.3 0 3.2l-42.7 42.7c-.5.4-1 .7-1.6.7z"/><circle class="st1" cx="253.9" cy="71.4" r="12.6"/><path class="st0" d="M270.6 130.7c-4.3 4.3-11.7 3.9-11.7 3.9s-.4-7.4 3.9-11.7c4.3-4.3 11.7-3.9 11.7-3.9s.4 7.4-3.9 11.7zM244.9 107.5c4.3 4.3 3.9 11.7 3.9 11.7s-7.4.4-11.7-3.9-3.9-11.7-3.9-11.7 7.4-.4 11.7 3.9zM270.6 189.4c-4.3 4.3-11.7 3.9-11.7 3.9s-.4-7.4 3.9-11.7 11.7-3.9 11.7-3.9.4 7.4-3.9 11.7z"/><ellipse transform="rotate(-88 152.76 225.6) scale(1.00001)" class="st1" cx="152.8" cy="225.6" rx="91" ry="91"/><defs><ellipse id="SVGID_1_" transform="rotate(-88 152.76 225.6) scale(1.00001)" cx="152.8" cy="225.6" rx="91" ry="91"/></defs><clipPath id="SVGID_2_"><use xlink:href="#SVGID_1_" overflow="visible"/></clipPath><g class="st2"><path class="st3" d="M95.2 299.3c-.2 0-.4-.1-.6-.1-3-1.2-4.9-4.1-4.8-7.3l1.1-30.3-6.8-7.3c-.3-.4-.5-.9-.5-1.4l.5-14.4-7.6-.3c-8.4-.3-14.9-7.3-14.6-15.7l1.3-37.9-13.3-.5c-1 0-1.9-.9-1.8-2l.2-5.7c.3-8 6.8-14.5 14.8-14.6h.1c.5 0 1 .2 1.3.6l6.8 7.2 14.4.5c.5 0 1 .2 1.3.6l5.5 5.9c.3.4.5.9.5 1.4 0 .5-.2 1-.6 1.3l-6.5 6-.3 7.6c-.1 4.2 3.1 7.7 7.3 7.8 4.2.1 7.7-3.1 7.8-7.3l.2-5.5c0-.5.3-1.1.7-1.4.4-.3.8-.4 1.3-.4h.3c7.1 1.3 12.3 7.4 12.5 14.6 0 .5-.2 1.1-.6 1.4l-14.6 13.6c-5.4 5-12.4 7.6-19.7 7.4-2.1-.1-3.8 1.6-3.9 3.7s1.6 3.8 3.7 3.9l11.4.4c16.4.6 29.5 14.3 29.3 30.7 0 .4-.2.8-.4 1.2l-23.4 29-.2 5.4c0 .6-.3 1.2-.9 1.5-.4.3-.8.4-1.2.4zm147.8 2.8c-.2 0-.5-.1-.7-.2-.7-.3-1.1-1-1.1-1.8l.4-10.6-13.3-.5c-1 0-1.9-.9-1.8-2l.2-4.9c0-.5.2-1 .6-1.3l14.5-13.5c.4-.3.9-.5 1.4-.5h.1c8 .7 14 7.6 13.8 15.6l-.2 6.8c0 .5-.2 1-.6 1.3l-11.8 11c-.5.4-1 .6-1.5.6zm-77.9-22.9c-3.7-.6-6.5-3.9-6.3-7.7l.5-15.2c.1-4.2-3.1-7.7-7.3-7.8-8.4-.3-14.9-7.3-14.6-15.7.3-8 6.8-14.4 14.8-14.6h.1c.5 0 1 .2 1.3.6l6.5 7.2 15.4.5-14.6-15.7-7.6-.3-2.5 2.4c-.4.3-.9.5-1.4.5s-1-.2-1.3-.6l-1.1-1.1c-.7-.8-.7-2 .1-2.7l6.5-6 .3-7.6c.1-4.2 3.7-7.5 7.8-7.3l22.7.8 14.3-13.4c5.9-5.5 13.6-8.4 21.7-8.1l32.9 1.1c4.2.1 7.5 3.7 7.3 7.8l-.4 11.4c-.1 2.1-1.8 3.7-3.9 3.7-2.1-.1-3.7-1.8-3.7-3.9l.4-11.4-15.7 14.6-.3 7.6 6.4 6.8c.6.6.7 1.5.3 2.2l-7.5 13.7-.2 4.4c-.2 6.2-2.6 12.1-6.8 16.6-.4.4-.9.6-1.4.6h-.1c-.5 0-1-.2-1.3-.6l-6-6.4-6.5 6c-.4.3-.9.5-1.4.5-.5 0-1-.2-1.3-.6l-13.3-14.3-15.4 14.8-.6 16.5c-.1 4-1.8 7.8-4.8 10.6l-10.5 9.8c-.4.3-.9.5-1.4.5 0-.2 0-.2-.1-.2zm73.6-17.4c-.7 0-1.4-.3-1.9-.9l-7.3-7.8c-.5-.5-.7-1.2-.7-1.9s.3-1.4.8-1.9 1.2-.7 1.9-.7 1.4.3 1.9.9l7.3 7.8c.5.5.7 1.2.7 1.9s-.3 1.4-.9 1.9c-.4.5-1.1.7-1.8.7zm14.8-42.8c-.2 0-.5-.1-.7-.2-.7-.3-1.1-1-1.1-1.8l.5-14.4c.1-2.1 1.8-3.7 3.9-3.7 2.1.1 3.7 1.8 3.7 3.9l-.4 10.6c0 .5-.2 1-.6 1.3l-3.9 3.7c-.4.5-.9.6-1.4.6zm-111.4-13.4c-.5 0-1-.2-1.3-.6l-1.1-1.1c-.7-.8-.7-2 .1-2.7l2.5-2.4.1-1.9c0-1 .9-1.9 2-1.8 1 0 1.9.9 1.8 2l-.2 4.9c0 .5-.2 1-.6 1.3l-2 1.8c-.3.4-.8.6-1.3.5zm-16.6-13.8c-.2 0-.5-.1-.7-.2-.7-.3-1.1-1-1.1-1.8l.1-3c.1-3.5-2.2-6.7-5.6-7.6-.5-.1-.9-.5-1.2-.9-.2-.5-.3-1-.1-1.5 1.1-3.1 4.1-5.2 7.4-5.1l18.4.6c.8 0 1.4.5 1.7 1.2.3.7.1 1.5-.5 2.1l-17.1 15.7c-.3.4-.8.5-1.3.5zm-16.6-13.1c-2.1-.1-3.7-1.8-3.7-3.9s1.8-3.7 3.9-3.7c2.1.1 3.7 1.8 3.7 3.9s-1.8 3.8-3.9 3.7zm72 1.4c-.7 0-1.4-.3-1.9-.9-.5-.5-.7-1.2-.7-1.9s.3-1.4.9-1.9l7.8-7.3c.5-.5 1.2-.7 1.9-.7s1.4.3 1.9.9c.5.5.7 1.2.7 1.9s-.3 1.4-.9 1.9l-7.8 7.3c-.5.5-1.2.8-1.9.7z"/></g><g><path class="st0" d="M31.3 102.9c0-8.8 11.5-16 11.5-16s11.5 7.2 11.5 16M31.3 102.9h22.9V119H31.3z"/><path class="st3" d="M42.7 119.9H22.8V95.5c11 0 19.9 8.9 19.9 19.9v4.5zM62.7 119.9h-20v-4.5c0-11 8.9-19.9 19.9-19.9v24.4z"/><path class="st3" d="M42.7 115.5H22.8v6.4c0 11 8.9 19.9 19.9 19.9 11 0 19.9-8.9 19.9-19.9v-6.4H42.7z"/><g><circle class="st0" cx="42.7" cy="72.4" r="2.4"/></g><g><circle class="st0" cx="37.6" cy="80.2" r="2.4"/><circle class="st0" cx="47.9" cy="80.2" r="2.4"/></g></g><g><path class="st4" d="M227.3 19.2s7.4-3.3 9.2-8.7c2.1-6.2-5.3-9.5-9.2-2.6M227.3 19.2s-7.4-3.3-9.2-8.7c-2.1-6.2 5.3-9.5 9.2-2.6"/></g><g><path class="st4" d="M13.2 176.5s7.4-3.3 9.2-8.7c2.1-6.2-5.3-9.5-9.2-2.6M13.2 176.5s-7.4-3.3-9.2-8.7c-2.1-6.2 5.3-9.5 9.2-2.6"/></g><g><path class="st4" d="M42.7 45.8s3.7-1.7 4.6-4.3c1-3.1-2.7-4.7-4.6-1.3M42.7 45.8s-3.7-1.7-4.6-4.3c-1-3.1 2.7-4.7 4.6-1.3"/></g><g><path class="st5" d="M278.3 162.9s3.7-1.7 4.6-4.3c1-3.1-2.7-4.7-4.6-1.3M278.3 162.9s-3.7-1.7-4.6-4.3c-1-3.1 2.7-4.7 4.6-1.3"/></g><g><path class="st5" d="M205.4 34.2s3.7-1.7 4.6-4.3c1-3.1-2.7-4.7-4.6-1.3M205.4 34.2s-3.7-1.7-4.6-4.3c-1-3.1 2.7-4.7 4.6-1.3"/></g><g><circle class="st0" cx="96.6" cy="67.5" r="15.1"/><circle class="st0" cx="96.6" cy="26.7" r="15.1"/><path class="st0" d="M94.4 26.7h4.5v222.5h-4.5z"/><circle class="st1" cx="96.6" cy="67.5" r="5.5"/><circle class="st1" cx="96.6" cy="26.7" r="5.5"/><path class="st0" d="M92.1 131.8c0 4.8-3.9 8.8-8.8 8.8-4.8 0-8.8-3.9-8.8-8.8M92.1 115.5c0 4.8-3.9 8.8-8.8 8.8-4.8 0-8.8-3.9-8.8-8.8M118.8 115.5c0 4.8-3.9 8.8-8.8 8.8-4.8 0-8.8-3.9-8.8-8.8M92.1 99.2c0 4.8-3.9 8.8-8.8 8.8-4.8 0-8.8-3.9-8.8-8.8M118.8 99.2c0 4.8-3.9 8.8-8.8 8.8-4.8 0-8.8-3.9-8.8-8.8"/><g><path class="st0" d="M80.4 243.7c6.1 6.1 16.6 5.5 16.6 5.5s.6-10.5-5.5-16.6c-6.1-6.1-16.6-5.5-16.6-5.5s-.6 10.5 5.5 16.6z"/></g></g><g><path class="st0" d="M203.1 105.8h4.5v121.4h-4.5z"/><path class="st0" d="M216.9 97c0 12.8-11.5 23.1-11.5 23.1s-11.5-10.3-11.5-23.1 11.5-23.1 11.5-23.1 11.5 10.3 11.5 23.1zM189.7 122.5c8.6 0 15.6 7.8 15.6 7.8s-7 7.8-15.6 7.8-15.6-7.8-15.6-7.8 7-7.8 15.6-7.8zM221 122.5c8.6 0 15.6 7.8 15.6 7.8s-7 7.8-15.6 7.8-15.6-7.8-15.6-7.8 7-7.8 15.6-7.8zM218.8 222.7c-4.9 4.9-13.3 4.5-13.3 4.5s-.5-8.4 4.5-13.3 13.3-4.5 13.3-4.5.4 8.3-4.5 13.3zM189.7 143.5c8.6 0 15.6 7.8 15.6 7.8s-7 7.8-15.6 7.8-15.6-7.8-15.6-7.8 7-7.8 15.6-7.8zM221 143.5c8.6 0 15.6 7.8 15.6 7.8s-7 7.8-15.6 7.8-15.6-7.8-15.6-7.8 7-7.8 15.6-7.8z"/><g><path class="st0" d="M189.7 164.6c8.6 0 15.6 7.8 15.6 7.8s-7 7.8-15.6 7.8-15.6-7.8-15.6-7.8 7-7.8 15.6-7.8zM221 164.6c8.6 0 15.6 7.8 15.6 7.8s-7 7.8-15.6 7.8-15.6-7.8-15.6-7.8 7-7.8 15.6-7.8z"/></g><g><path class="st0" d="M189.7 185.6c8.6 0 15.6 7.8 15.6 7.8s-7 7.8-15.6 7.8-15.6-7.8-15.6-7.8 7-7.8 15.6-7.8zM221 185.6c8.6 0 15.6 7.8 15.6 7.8s-7 7.8-15.6 7.8-15.6-7.8-15.6-7.8 7-7.8 15.6-7.8z"/></g></g><g><circle class="st0" cx="154.2" cy="55.8" r="26.6"/><circle class="st6" cx="154.2" cy="55.8" r="8.8"/><circle class="st7" cx="154.2" cy="55.8" r="4"/><path class="st8" d="M158 36.8c0 2.1-3.7 10.2-3.7 10.2s-3.7-8.2-3.7-10.2 1.7-3.7 3.7-3.7c2-.1 3.7 1.6 3.7 3.7zM150.5 74.8c0-2.1 3.7-10.2 3.7-10.2s3.7 8.2 3.7 10.2-1.7 3.7-3.7 3.7c-2 .1-3.7-1.6-3.7-3.7zM173.3 59.5c-2.1 0-10.2-3.7-10.2-3.7s8.2-3.7 10.2-3.7 3.7 1.7 3.7 3.7c0 2.1-1.7 3.7-3.7 3.7zM135.2 52.1c2.1 0 10.2 3.7 10.2 3.7s-8.2 3.7-10.2 3.7c-2.1 0-3.7-1.7-3.7-3.7 0-2.1 1.6-3.7 3.7-3.7z"/><g><path class="st8" d="M165.1 71.9c-1.5-1.5-4.6-9.9-4.6-9.9s8.4 3.1 9.9 4.6c1.5 1.5 1.5 3.8 0 5.3s-3.9 1.5-5.3 0zM143.4 39.7c1.5 1.5 4.6 9.9 4.6 9.9s-8.4-3.1-9.9-4.6c-1.5-1.5-1.5-3.8 0-5.3s3.9-1.5 5.3 0z"/></g><g><path class="st8" d="M138.1 66.6c1.5-1.5 9.9-4.6 9.9-4.6s-3.1 8.4-4.6 9.9-3.8 1.5-5.3 0-1.4-3.8 0-5.3zM170.3 45c-1.5 1.5-9.9 4.6-9.9 4.6s3.1-8.4 4.6-9.9 3.8-1.5 5.3 0 1.5 3.8 0 5.3z"/></g></g><g><path class="st0" d="M38.3 201.5c6.1 6.1 5.5 16.6 5.5 16.6s-10.5.6-16.6-5.5c-6.1-6.1-5.5-16.6-5.5-16.6s10.5-.6 16.6 5.5z"/></g><g><path class="st0" d="M60 174.4c-6.1 6.1-16.6 5.5-16.6 5.5s-.6-10.5 5.5-16.6c6.1-6.1 16.6-5.5 16.6-5.5s.6 10.5-5.5 16.6z"/></g></svg>
