<svg xmlns="http://www.w3.org/2000/svg" width="612" height="612" viewBox="0 0 612 612"><path fill="#A391C5" d="M349.42 196.286c-69.627-33.213-70.424-86.623-70.424-86.623a78.16 78.16 0 0 1-.623 8.482c.76 12.381-41.203 125.254 1.42 151.479 56.536 34.789 46.298-10.32 39.858 49.884-6.938 64.907 26.406 116.43-51.168 112.002-74.348-4.241-129.838-59.009-128.941-129.408-3.562 12.163-5.63 25.484-5.63 40.331 0 94.065 78.122 161.027 174.579 156.244 95.012-4.708 149.069-73.937 149.069-153.853.001-74.134-34.789-113.55-108.14-148.538z"/><path fill="#CCA6CE" d="M384.744 249.902c-.137-.212-.299-.374-.448-.585-12.567-19.543-32.31-36.321-59.426-53.005-42.623-26.226-45.114-74.267-45.874-86.648-9.018 71.166-113.969 105.456-139.454 192.44-24.226 73.544 49.1 158.05 151.672 146.354 102.573-11.696 146.604-121.736 93.53-198.556z"/><path fill="#6A56A0" d="M239.754 404.152c.436 7.549-5.555 14.025-13.352 14.474-7.81.437-14.486-5.318-14.91-12.866-.436-7.549 5.542-14.025 13.353-14.461 7.81-.449 14.486 5.305 14.909 12.853z"/><path fill="#FFF" d="M232.68 401.275c.174 2.939-2.167 5.468-5.207 5.643-3.039.174-5.642-2.08-5.804-5.02-.174-2.939 2.155-5.456 5.194-5.63 3.052-.174 5.655 2.068 5.817 5.007z"/><path fill="#6A56A0" d="M343.56 389.642c.437 7.548-5.555 14.025-13.364 14.474-7.798.436-14.474-5.318-14.91-12.867-.423-7.548 5.556-14.024 13.365-14.461 7.809-.449 14.486 5.306 14.909 12.854z"/><path fill="#FFF" d="M336.485 386.765c.162 2.939-2.167 5.468-5.207 5.643-3.039.174-5.642-2.08-5.804-5.02-.175-2.94 2.167-5.456 5.193-5.63 3.04-.175 5.644 2.067 5.818 5.007z"/></svg>
