<svg xmlns="http://www.w3.org/2000/svg" width="612" height="612" viewBox="0 0 612 612"><path fill="#6A56A0" d="M387.637 444.989s26.09.153 43.435-38.858c17.345-39.008 44.448-49.148 77.804-47.887 33.353 1.265 3.511-21.058-8.657-19.432-12.172 1.627-44.419 15.229-55.319 21.915s-42.382 47.138-45.736 50.251c-3.357 3.112-15.346 13.615-21.021 14.651-5.675 1.04-8.575 1.764-8.575 1.764"/><path fill="#A391C5" d="M276.519 508.924s-2.096 9.645-9.75 26.859l15.223-4.619 7.077 3.961s17.944-15.393 19.482-30.413l-32.032 4.212zM158.445 517.686s-5.232 16.145-17.608 27.234l-1.216 8.09-6.979-4.328-19.065.463 8.524-13.179s1.535-20.858 10.818-33.493c9.283-12.638 25.526 15.213 25.526 15.213zM114.524 358.416s-.319 10.128-.319-47.447c0-87.032 85.895-175.215 85.895-175.215s-22.433 75.604-5.815 125.04c16.614 49.432-64.388 107.959-64.388 107.959l-15.373-10.337z"/><path fill="#CCA6CE" d="M81.292 361.151c-25.229 15.695-37.623 35.2-53.54 63.168-23.541 41.362-22.99 71.302-15.47 79.949 7.517 8.645 34.298 26.593 61.216 14.718 33.519-14.786 40.078-14.274 40.078-14.274s29.118 20.819 120.812 14.434c143.265-9.984 143.945-61.74 143.945-61.74s25.475-40.491-19.551-69.528c-51.842-33.428-92.013-54.09-144.347-54.09-69.182-.001-92.563 2.127-133.143 27.363z"/><path fill="#6A56A0" d="M83.04 451.661c-3.983 4.407-9.851 5.601-13.087 2.663-3.24-2.937-2.637-8.879 1.346-13.282 3.987-4.414 9.851-5.604 13.094-2.667 3.236 2.934 2.633 8.883-1.353 13.286z"/><path fill="#DCDBDB" d="M82.094 445.55c-1.199 1.323-2.966 1.682-3.941.799-.978-.887-.792-2.673.408-4.003 1.196-1.323 2.959-1.686 3.941-.802.975.887.795 2.676-.408 4.006z"/><path fill="#736BB1" d="M228.645 456.613s11.565-21.031 57.197-23.733c0 0-26.439-32.339-59.071-31.462 0 0 7.888-8.11 32.776-9.414 0 0-18.293-15.337-46.88-8.391 0 0 7.813-13.749 26.191-15.483 0 0-18.668-9.837-41.394-5.209 0 0 22.276-20.52 50.775-36.612 0 0-53.97-17.83-90.846 6.076 0 0-29.816-28.395-61.271-36.918 0 0 5.933 4.599 13.025 22.547 0 0-18.459-17.599-48.8-28.069 0 0 11.575 29.487 36.27 53.302l-26.335-13.315s3.341 17.094 11.167 29.089c0 0 4.146 6.092 19.173 7.787 1.793.205-7.021-11.653-7.021-11.653s19.815 11.917 21.471 11.875c7.83-.212 10.776 8.191 22.882 5.274 19.594 10.789 47.838 11.871 47.838 11.871s-11.953 7.514-37.049 5.976c0 0 5.806 18.612 37.408 23.554 0 0-18.244 2.634-30.194 29.842 0 0 19.917-13.605 34.188-10.311 0 0-.339 22.919-28.545 47.128-8.058 6.917-16.579 12.081-24.398 15.934.398.287.786.626 1.147 1.092 5.734 7.409 25.086 15.969 29.037 24.421 31.797 3.006 56.691-1.561 56.691-1.561l18.635-9.845s-42.744-1.562-30.1-15.085c0 0-6.173-3.064-14.404-6.888 0 0 41.153-12.811 55.558-31.915.001-.001-13.361 1.563-25.121.096z"/><path fill="#736BB1" d="M152.281 315.758c-11.907 15.747-24.584 49.161-24.584 49.161s6.079 14.587 30.275 3.834c24.196-10.754 44.621-27.163 68.609-42.764 38.496-25.034 67.592-87.342 67.592-87.342s-12.898-3.204-23.117 2.807c5.173-3.836 24.92-18.678 32.785-27.739 16.602-19.118 29.734-43.233 45.86-56.969 0 0-115.998 11.904-197.42 159.012z"/><path fill="#CCA6CE" d="M117.712 375.676s-.072-41.54 39.178-92.567c76.813-99.862 155.938-121.754 192.811-126.363 0 0-95.638 25.354-147.877 105.625-52.232 80.271-3.058 75.578-65.714 111.428-17.025 9.739-18.398 1.877-18.398 1.877z"/><path fill="#CEE1F0" d="M78.108 382.554c-11.637 6.122-15.601 1.103-18.156-7.617-2.556-8.723-5.841-19.102-1.467-22.29 4.377-3.185 25.63 14.679 23.176 21.883-2.142 6.281-3.553 8.024-3.553 8.024z"/><path fill="#736BB1" d="M374.5 430.888s29.259 6.963 47.578-24.587c39.35-67.784 80.806-42.131 115.899-49.019 35.1-6.888 67.298-25.539 68.7-62.475 2.223-58.722-42.489-70.871-42.489-70.871 16.096 47.594-21.569 29.545-105.717 48.731-84.142 19.186-63.306 110.423-65.483 125.682-2.177 15.258-19.176 14.003-19.176 14.003l.688 18.536z"/><path fill="#A391C5" d="M564.188 223.937c16.096 47.594-21.569 29.545-105.717 48.731-84.142 19.186-63.306 110.423-65.483 125.682-2.177 15.258-19.176 14.003-19.176 14.003s22.445 8.515 34.363-26.853c12.839-38.093 48.904-59.188 75.053-57.562 0 0-21.314-9.446-53.602 5.956 0 0 29.193-34.047 113.575-26.357 0 0-21.256-16.035-52.274-19.2 0 0 67.279.961 82.987-26.318 13.962-24.239-9.726-38.082-9.726-38.082z"/><path fill="#CCA6CE" d="M300.516 481.073c1.431.476 55.293 21.569 73.263 60.512 2.862 6.19.594 15.917.594 15.917l11.842-4.492 12.961 5.672s10.261-126.907-30.26-161.69c-34.259-29.402-63.162 5.521-63.162 5.521l-5.238 78.56z"/><path fill="#B2C2CD" d="M58.485 352.646c4.377-3.185 29.9 13.626 27.446 20.829-2.142 6.281-7.823 9.078-7.823 9.078s1.643-6.591-5.818-15.245c-7.462-8.651-13.805-14.662-13.805-14.662z"/><path fill="#CCA6CE" d="M202.871 514.494c2.872 9.007 6.353 21.204 12.885 33.728 3.097 5.933 1.102 19.313 1.102 19.313l10.571-2.321 15.988 5.93 3.608-7.478 3.612.258s-5.16-7.993-4.127-13.407c1.034-5.418 6.959-45.388 6.959-75.812l-55.261 13.727c.001-.001 1.791 17.056 4.663 26.062z"/><path fill="#736BB1" d="M113.576 504.712s24.62 17.495 64.048 17.495l-4.531-16.253s19.095-53.719-6.65-29.988c-25.744 23.729-52.867 28.746-52.867 28.746z"/><path fill="#736BB1" d="M183.443 472.967s18.971 15.392 38.633 24.711c0 0-24.147 6.598-50.319 1.118"/><path fill="#A391C5" d="M256.064 471.949s-3.198 37.764-5.701 59.179c-2.503 21.416-2.927 23.73.274 32.796l-3.612-.258-3.608 7.478s-2.637-14.841 0-39.321c2.637-24.48 12.647-59.874 12.647-59.874z"/><path fill="#A391C5" d="M249.154 519.028s55.261-5.003 85.188-19.887c0 0-3.944-3.006-11.249-7.009 0 0-28.692 12.303-71.618 5.268"/><path fill="#876CB0" d="M187.951 413.693c-.307-.039-.62-.088-.926-.134.059.102.101.225.16.326.492-.133.766-.192.766-.192z"/><g fill="#A391C5"><path d="M187.025 413.56c-5.88-.857-12.256-2.556-16.188-3.915.528 4.443.727 7.618.61 11.898 7.058-5.813 13.41-7.384 15.578-7.983zM169.945 436.208c-5.711 29.44-27.237 52.591-59.459 61.229-32.036 8.589-57.614 30.631-79.587 19.907 0 0 22.808 14.064 50.622.296 21.478-10.633 24.897-7.79 46.662-16.666 53.582-21.853 60.877-57.97 61.962-67.739 0-.001-7.096-2.54-20.2 2.973z"/></g><path fill="#A391C5" d="M234.264 334.816s-20.474 11.243-37.675 28.443c0 0 20.533-4.312 38.337 4.312 0 0-18.772 2.882-23.919 17.645 0 0 9.202-4.169 21.429-3.188 0 0 18.068-16.702 41.854-22.013 23.786-5.31 43.428 6.089 50.615 11.683s5.014-1.069 5.014-1.069 11.895 2.494-7.266-7.444-63.182-28.369-88.389-28.369z"/><path fill="#A391C5" d="M256.932 366.063c26.044-11.356 75.121 3.537 102.646 32.176 26.016 27.068 10.001.049 6.122-3.833-3.879-3.883-28.562-24.679-35.302-26.869-6.741-2.19-17.12-7.521-20.061-7.521-2.939 0-10.671-5.31-16.304-5.31s-19.401-1.043-23.574-1.043h-5.382"/><path fill="#A391C5" d="M379.982 406.389c-17.073-23.271-56.604-47.021-105.693-62.731 0 0 19.137 7.405 41.968 21.797-2.2-.841-4.729-1.767-7.706-2.719-9.651-3.09-11.806-5.453-24.949-7.263-13.143-1.809-15.141-1.809-16.833-1.809h-1.692l-15.923 16.474c26.723-14.385 90.286 1.842 122.885 40.658a135.753 135.753 0 0 1 3.55 4.918c32.961 48.122 19.672 141.254 19.672 141.254l3.915 1.714c8.345-92.366-2.119-129.023-19.194-152.293z"/><path fill="#6A56A0" d="M253.767 456.516c-20.637 18.948-86.358 35.386-79.193 19.919l.003-.006c3.501-6.132 7.298-13.316 8.987-21.954 0 0-15.953 35.625-68.39 51.212 0 0 31.726 23.189 90.168 16.631 0 0-3.074-9.479-4.045-13.938 14.857-2.32 23.062-11.047 23.062-11.047-7.927-2.78-19.017-10.362-19.017-10.362 33.417-7.579 48.425-30.455 48.425-30.455z"/><path fill="#6A56A0" d="M285.841 432.88s-39.791-10.415-75.115 21.595c0 0 9.678 1.552 17.918 2.139.001-.001 12.82-19.223 57.197-23.734z"/></svg>
