<svg xmlns="http://www.w3.org/2000/svg" width="612" height="612" viewBox="0 0 612 612"><radialGradient id="a" cx="337.919" cy="187.638" r="161.012" gradientTransform="translate(0 -88)" gradientUnits="userSpaceOnUse"><stop offset="0" stop-color="#f7a71c"/><stop offset=".197" stop-color="#f5a120"/><stop offset=".51" stop-color="#f28f28"/><stop offset=".898" stop-color="#ed6f35"/><stop offset="1" stop-color="#ec6636"/></radialGradient><path fill="url(#a)" d="M496.584 483.882c-3.519 2.28-8.676 5.433-15.066 7.891-6.367 2.469-13.977 3.984-21.316 3.058-7.354-.86-14.385-3.993-21.245-8.513-13.806-9.092-26.677-23.273-41.553-34.274-7.395-5.523-38.003-17.95-44.504-14.998-2.888-39.032-20.279-67.434 15.262-84.193 72.271-22.8 115.145-92.633 115.145-172.448C483.306 81.874 403.438 2 304.9 2c-98.533 0-178.408 79.875-178.408 178.404 0 74.417 45.568 138.159 110.303 164.92 45.116 28.233 18.544 48.759 17.493 91.486-.016.735 0 0 0 0-4.035.977-12.242 8.093-18.213 9.8-6.801 2.011-14.799 4.5-23.525 8.295-8.649 3.729-18.28 9.214-25.797 16.538-7.591 7.272-12.541 15.536-15.994 22.907-3.479 7.444-5.705 14.27-7.506 20.08-3.482 11.62-5.176 19.259-5.227 19.272.025.037 5.454-5.783 14.034-13.82 8.431-7.856 20.906-18.353 32.462-20.473 5.72-1.174 11.308-.89 17.297-.168 5.972.744 12.158 1.978 17.793 3.176 1.545.338 3.02 10.129 4.455 10.443 1.536 9.603 3.723 18.997 5.72 27.896 3.974 17.049 6.75 33.02 5.403 45.347-1.102 12.329-5.779 20.205-5.635 20.184-.187-.086 7.643-4.644 15.355-16.635 7.927-11.796 13.762-30.548 18.021-48.34a721.27 721.27 0 0 1 3.5-14.045 292.699 292.699 0 0 1 2.301 10.117c1.725 8.104 3.453 17.271 6.164 26.785 1.374 4.751 3.01 9.604 5.181 14.346 2.092 4.593 5.05 9.835 8.461 13.661 6.825 7.98 15.766 11.634 23.006 12.628 7.357 1.028 12.652.137 16.418-.452 3.723-.662 5.74-1.251 5.74-1.229.017-.014-2.077-.478-5.542-1.612-3.359-1.126-8.461-3.057-12.766-6.327-4.355-3.186-8.046-8.29-8.954-14.039-.532-2.935-.355-5.386-.129-8.813.266-3.286.855-6.8 1.647-10.461 3.177-14.72 9.166-31.242 11.366-47.72.266-1.919.476-3.85.619-5.761a26.159 26.159 0 0 1 4.067 3.875c3.861 4.494 7.729 11.029 11.449 18.035 3.74 7.036 7.378 14.604 11.497 21.765 4.135 7.056 8.759 14.236 15.571 18.465 3.368 2.072 7.118 2.878 10.044 2.654 2.957-.187 5.156-1.053 6.826-1.835 3.309-1.644 4.755-2.987 4.793-2.942.01-.055-2.029.359-5.346.151-3.345-.151-7.684-1.766-9.32-5.666-1.87-3.803-2.448-9.81-2.448-16.747-.021-6.945.484-14.839.677-23.247.101-5.267.067-10.764-.331-16.481 2.854.927 5.789 1.903 8.922 2.938 9.493 3.097 20.284 6.536 31.961 8.315 11.601 1.851 24.336 1.532 34.954-2.119 10.674-3.541 18.568-9.661 24.047-15.218 5.521-5.644 8.988-10.862 11.309-14.494 2.287-3.667 3.398-5.817 3.404-5.81.002.013-1.925 1.516-5.435 3.853z"/><radialGradient id="b" cx="341.594" cy="211.818" r="195.993" gradientTransform="translate(0 -88)" gradientUnits="userSpaceOnUse"><stop offset="0" stop-color="#fec80a"/><stop offset=".194" stop-color="#fcc118"/><stop offset=".502" stop-color="#f8b126"/><stop offset=".885" stop-color="#f39439"/><stop offset="1" stop-color="#f1883c"/></radialGradient><path fill="url(#b)" d="M434.572 198.818c0 70.27-56.969 127.25-127.234 127.25-70.267 0-127.245-56.978-127.245-127.25 0-70.267 56.976-127.239 127.245-127.239 70.266 0 127.234 56.972 127.234 127.239z"/><radialGradient id="c" cx="334.736" cy="226.815" r="156.796" gradientTransform="translate(0 -88)" gradientUnits="userSpaceOnUse"><stop offset="0" stop-color="#fff"/><stop offset="1" stop-color="#f6f6f6"/></radialGradient><circle fill="url(#c)" cx="307.334" cy="198.817" r="101.787"/><radialGradient id="d" cx="333.739" cy="247.673" r="102.302" gradientTransform="translate(0 -88)" gradientUnits="userSpaceOnUse"><stop offset="0" stop-color="#585857"/><stop offset="1" stop-color="#3d3d3c"/></radialGradient><path fill="url(#d)" d="M382.277 198.818c0 36.689-29.738 66.415-66.416 66.415-36.673 0-66.417-29.725-66.417-66.415 0-36.67 29.745-66.41 66.417-66.41 36.678-.003 66.416 29.736 66.416 66.41z"/><radialGradient id="e" cx="2160.581" cy="-65.823" r="102.308" gradientTransform="matrix(.1904 0 0 .3391 -75.345 195.845)" gradientUnits="userSpaceOnUse"><stop offset="0" stop-color="#fff"/><stop offset="1" stop-color="#f6f6f6"/></radialGradient><path fill="url(#e)" d="M345.271 186.792c0 12.444-5.664 22.536-12.654 22.536-6.971 0-12.642-10.089-12.642-22.536 0-12.428 5.671-22.511 12.642-22.511 6.989-.001 12.654 10.079 12.654 22.511z"/><g><radialGradient id="f" cx="309.231" cy="393.287" r="22.867" gradientTransform="matrix(1 0 0 2.4922 0 -952.726)" gradientUnits="userSpaceOnUse"><stop offset="0" stop-color="#fedc00"/><stop offset=".208" stop-color="#ffd702"/><stop offset=".539" stop-color="#fec829"/><stop offset=".95" stop-color="#f7ad3e"/><stop offset="1" stop-color="#f7a93f"/></radialGradient><path fill="url(#f)" d="M340.883 27.417c0 9.133-14.173 16.531-31.656 16.531-17.474 0-31.646-7.398-31.646-16.531 0-9.116 14.171-16.517 31.646-16.517 17.483.001 31.656 7.403 31.656 16.517z"/><radialGradient id="g" cx="309.231" cy="337.356" r="22.867" gradientTransform="matrix(1 0 0 1.9002 0 -609.696)" gradientUnits="userSpaceOnUse"><stop offset="0" stop-color="#895f25"/><stop offset=".296" stop-color="#795522"/><stop offset=".728" stop-color="#64481c"/><stop offset="1" stop-color="#5c4319"/></radialGradient><path fill="url(#g)" d="M340.883 31.341c0 6.964-14.173 12.611-31.656 12.611-17.474 0-31.646-5.646-31.646-12.611 0-6.948 14.171-12.594 31.646-12.594 17.483 0 31.656 5.645 31.656 12.594z"/></g><path opacity=".12" fill="#010101" d="M357.068 359.777s5.673-7.166 0 0c-4.26 5.387-15.104 3.836-8.399 47.732 1.643 10.768 4.226 29.535 4.226 29.535s-45.555-41.934 4.173-77.267z"/><path opacity=".1" fill="#010101" d="M382.236 555.554c-.021.006-.446-4.887-.598-12.299-.229-7.392-.293-17.344-1.603-27.016-1.208-9.659-4.386-18.881-8.728-23.367-4.192-4.574-8.524-5.308-9.342-5.702-3.215-1.261-6.224-4.714-5.892-8.734.283-3.907 5.192-6.939 11.007-4.801.688.268 2.72 1.146 5.463 2.989 2.706 1.862 6.072 4.903 8.641 9.097 5.389 8.443 6.569 19.928 6.072 30.204-.47 10.391-2.25 20.168-3.365 27.477-1.197 7.286-1.675 12.138-1.655 12.152zM467.626 500.464c.019-.144-6.585 1.354-16.701-.421-5.014-.896-10.795-2.791-16.597-5.71-5.8-2.893-11.602-6.732-17.178-10.771-11.093-8.165-21.784-16.583-30.82-20.769-8.969-4.382-15.738-5.003-17.103-5.275-5.382-1.037-10.141-3.974-10.4-8.002-.272-3.935 5.592-7.594 13.024-6.23 1.734.302 10.731 2.414 20.525 8.911 9.926 6.299 19.75 16.54 29.387 25.795 4.863 4.624 9.82 8.947 14.884 12.395 5.033 3.454 10.18 5.965 14.835 7.474 9.372 3.005 16.198 2.481 16.144 2.603z"/><path opacity=".12" fill="#797978" d="M171.533 514.238c.058.031 1.647-4.086 5.667-9.569 3.913-5.496 11.146-11.987 20.221-15.547 8.988-3.704 18.843-4.833 26.301-5.188 7.514-.331 12.839-.049 13.938.062 4.403.528 7.44 4.258 6.867 8.206-.575 3.954-4.446 6.646-8.59 6.153-1.034-.105-5.964-1.243-12.726-2.229-6.752-.957-15.415-1.668-23.687-.085-8.299 1.436-15.878 5.745-20.654 10.15-4.835 4.361-7.297 8.094-7.337 8.047z"/></svg>
