<svg xmlns="http://www.w3.org/2000/svg" width="612" height="612" viewBox="0 0 612 612"><g fill="#5A1D1A"><path d="M187.191 314.313c1.605-48.066 51.362-278.194 285.687-219.084-217.25-75.754-301.265 140.321-302.303 236.443-.675 61.634 11.866 18.544 11.866 18.544l12.76 5.654a114.31 114.31 0 0 1-.169-6.308c-4.854-7.984-8.372-19.304-7.841-35.249z"/><path d="M326.827 301.841C314.77 136.403 565.685 126.292 565.685 126.292 229.657-21.684 188.796 266.247 187.191 314.313c-.531 15.944 2.987 27.265 7.841 35.249-.269-101.388 131.795-47.721 131.795-47.721z"/><path d="M225.18 191.663c-50.795 88.967-30.147 157.899-30.147 157.899l-9.065 2.219-10.078-44.95 8.017-27.089 8.804-38.889s6.717-21.014 8.925-23.976c2.211-2.958 9.334-14.77 9.334-14.77"/></g><path fill="#732728" d="M326.687 478.614c-19.373.266-39.08-.42-57.885 4.211.951 5.716 5.317 13.88 16.285 21.592 15.592 10.961-2.463 31.76 16.889 27.089 19.348-4.679 25.861-25.254 24.726-50.347-.041-.889-.018-1.709-.015-2.545z"/><path fill="#5A1D1A" d="M194.659 393.654l1.103 9.457c21.185-9.424 11.086-.873-1.103-9.457z"/><path fill="#732728" d="M224.576 479.878s-4.236 16.437-3.202 30.388c1.034 13.952-14.275 15.865-30.815-12.942"/><path fill="#DC3F3F" d="M368.696 402.58c-22.684-22.684-44.734-78.681-164.218-78.681l-48.253 7.661c-29.871 13.019-78.583 8.423-101.561 72.301s6.434 117.186 55.606 142.002c49.172 24.815 43.657 4.596 45.955-2.758 0 0 7.199 2.604 10.57-7.507s34.315-71.072 130.821-43.5c0 0 .305 18.383 18.688 26.04 18.382 7.658 0 31.864 18.996 25.735s23.915-27.143 20.834-52.08c-5.819-47.086 54.838-21.757 63.724-73.532-.001.001-25.707 9.773-51.162-15.681z"/><path fill="#5A1D1A" d="M131.664 491.657c8.617-5.597 17.869-24.41 5.953-33.059-14.235-10.326-21.527 6.438-18.479 20.127 2.894 13.054 9.341 15.015 12.526 12.932z"/><path fill="#FFF" d="M136.493 472.004c1.831-1.457 1.512-4.631-.74-7.062-2.226-2.431-5.529-3.199-7.346-1.737-1.831 1.479-1.5 4.642.732 7.079 2.235 2.413 5.537 3.203 7.354 1.72z"/><path fill="#DC3F3F" d="M257.172 467.61l-56.984 12.231s20.859 15.316 33.102 32.779 32.154 4.952 23.882-45.01z"/><path fill="#732728" d="M357.509 458.318c-9.421 18.842-.557 19.99-.557 48.698 0-33.992 6.416-44.103 33.76-52.145 27.343-8.043 29.146-36.61 29.146-36.61-16.236 36.92-52.928 21.216-62.349 40.057z"/><path fill="#732728" d="M365.307 450.822c-22.044 10.828-15.373 30.934-13.617 40.698 3.217 17.887 3.281 39.02-6.478 46.835 0 0 11.622-6.48 12.76-31.339 1.139-24.859 2.696-41.295 27.466-50.472M253.42 443.843s14.706 71.632-8.501 76.257c0 0 14.207 2.097 20.68-28.001 5.722-26.604-12.179-48.256-12.179-48.256z"/><path fill="#732728" d="M262.152 492.899s15.854-6.318 35.662 1.688c0 0-.966-13.779 5.698-26.977 0 0-4.596 4.035-9.766 11.848s-14.936-5.285-30.56-3.677M156.225 543.105c3.676-22.059 5.037-22.974 5.037-22.974s1.21 9.561 3.486 19.656c.001.001-2.664 5.042-8.523 3.318"/><path fill="#DC3F3F" d="M54.664 403.861c14.095-33.296 41.267-65.422 86.195-81.391 59.329-21.089 136.789-9.607 192.315 40.526"/><path fill="#DC3F3F" d="M213.669 301.841c10.426-57.685 111.047-326.425 383.185-213.764C348.242-41.638 208.79 204.107 190.559 319.835c-11.69 74.211 11.04 24.457 11.04 24.457l14.397 9.076c.233-2.636.553-5.155.905-7.633-4.445-10.494-6.689-24.761-3.232-43.894z"/><path fill="#732728" d="M397.651 293.447C374.796 86.469 596.854 88.077 596.854 88.077 324.716-24.584 224.095 244.156 213.669 301.841c-3.457 19.133-1.213 33.4 3.231 43.895 17.571-122.324 180.751-52.289 180.751-52.289z"/><path fill="#DC3F3F" d="M281.13 160.629c-76.957 98.323-64.23 185.106-64.23 185.106l-11.324 1.062-4.215-55.982 14.451-31.25 17.478-45.345s11.815-24.151 15-27.333 13.862-16.17 13.862-16.17"/><path fill="#612121" d="M397.651 293.447S395.587 179.988 286.737 153.6c0 0 104.088-154.901 310.116-65.522.001-.001-210.338-2.04-199.202 205.369z"/><path fill="#612121" d="M233.495 241.762s37.414-90.919 102.523-136.555l6.086 14.652c0-.001-69.551 43.441-108.609 121.903z"/></svg>
