<svg xmlns="http://www.w3.org/2000/svg" width="612" height="612" viewBox="0 0 612 612"><path fill="#483643" d="M353.484 196.909c-70.922-33.835-71.734-88.243-71.734-88.243a77.102 77.102 0 0 1-.643 8.642c.783 12.609-41.968 127.592 1.456 154.302 57.592 35.442 47.154-10.51 40.598 50.817-7.059 66.118 26.904 118.604-52.121 114.098-75.738-4.324-132.256-60.115-131.352-131.825-3.627 12.391-5.731 25.957-5.731 41.083 0 95.818 79.577 164.029 177.839 159.159 96.789-4.797 151.852-75.319 151.852-156.728-.002-75.519-35.445-115.668-110.164-151.305z"/><path fill="#80757A" d="M395.927 240.897c-45.201-51.442-97.128-45.359-114.177-132.231-9.182 72.493-116.093 107.426-142.062 196.034-2.547 7.744-3.979 15.61-4.482 23.471l-.255.104c-10.244 116.159 115.614 176.917 212.59 134.021 82.136-36.324 115.438-145.067 48.386-221.399z"/><path fill="#2C2226" d="M241.771 408.65c.449 7.689-5.658 14.288-13.604 14.743-7.945.443-14.75-5.416-15.186-13.105-.437-7.685 5.646-14.289 13.603-14.731 7.957-.455 14.762 5.403 15.187 13.093z"/><path fill="#FFF" d="M234.565 405.721c.182 2.996-2.213 5.567-5.301 5.743-3.093.183-5.755-2.11-5.913-5.106-.182-2.996 2.202-5.562 5.283-5.737 3.111-.177 5.774 2.104 5.931 5.1z"/><path fill="#2C2226" d="M347.523 393.87c.437 7.69-5.665 14.282-13.616 14.743-7.951.443-14.749-5.422-15.192-13.111-.437-7.685 5.658-14.283 13.616-14.726 7.95-.461 14.749 5.404 15.192 13.094z"/><path fill="#FFF" d="M340.312 390.94c.158 2.996-2.207 5.568-5.307 5.744-3.099.182-5.749-2.117-5.907-5.113-.182-2.996 2.202-5.555 5.289-5.731 3.092-.176 5.743 2.105 5.925 5.1z"/></svg>
